<svg width="57" height="44" viewBox="0 0 57 44" fill="none" xmlns="http://www.w3.org/2000/svg">
<rect x="3" y="3" width="51" height="38" rx="9" stroke="white" stroke-opacity="0.2" stroke-width="6"/>
<rect x="6" y="6" width="45" height="32" rx="5.76117" fill="#0060AF"/>
<path fill-rule="evenodd" clip-rule="evenodd" d="M15.2555 25.0662C15.2555 24.6368 15.2605 23.4888 15.2492 23.3474C15.259 21.6392 13.9356 20.4343 13.0996 20.5282C12.5211 20.5753 12.0361 20.7967 11.7759 21.4336C11.5345 22.0271 11.7503 22.8166 12.5525 23.0019C13.4102 23.2008 13.9112 23.3663 14.2737 23.5999C14.7179 23.8858 15.0805 24.432 15.0901 25.0669" fill="white"/>
<path fill-rule="evenodd" clip-rule="evenodd" d="M14.8974 25.0669C14.9002 24.5164 14.5728 24.0296 14.1449 23.768C13.7653 23.5368 13.2558 23.3849 12.4337 23.1892C12.1796 23.1282 11.9137 22.9927 11.8314 22.8199C11.6138 23.0258 11.5742 23.4886 11.6125 23.7591C11.657 24.072 12.0467 24.5878 12.6336 24.6081C12.9919 24.6216 13.445 24.5357 13.6622 24.4924C14.0371 24.4164 14.6301 24.6367 14.7245 25.0662" fill="white"/>
<path fill-rule="evenodd" clip-rule="evenodd" d="M15.5587 17.8661C14.5636 17.8661 13.7043 18.4819 13.7073 19.5474C13.7104 20.4435 14.4782 20.9232 14.7523 21.2658C15.1664 21.7821 15.3905 22.3932 15.4137 23.3283C15.4319 24.0725 15.4309 24.8074 15.435 25.0679H15.6545C15.6508 24.7954 15.6409 24.0152 15.6521 23.3053C15.6671 22.3699 15.8992 21.7821 16.3135 21.2658C16.59 20.9232 17.3571 20.4435 17.3587 19.5474C17.3626 18.4819 16.5035 17.8661 15.5095 17.8661" fill="white"/>
<path fill-rule="evenodd" clip-rule="evenodd" d="M15.8113 25.0662C15.8113 24.6368 15.8061 23.4888 15.8172 23.3474C15.8074 21.6392 17.13 20.4343 17.9668 20.5282C18.5453 20.5753 19.0296 20.7967 19.2907 21.4336C19.5318 22.0271 19.3148 22.8166 18.5136 23.0019C17.6553 23.2008 17.155 23.3663 16.7916 23.5999C16.348 23.8858 16.0107 24.432 16.0004 25.0669" fill="white"/>
<path fill-rule="evenodd" clip-rule="evenodd" d="M16.1695 25.0669C16.1664 24.5164 16.4937 24.0296 16.9203 23.768C17.3016 23.5368 17.8117 23.3849 18.633 23.1892C18.8877 23.1282 19.1532 22.9927 19.234 22.8199C19.4527 23.0258 19.4923 23.4886 19.4539 23.7591C19.4085 24.072 19.0197 24.5878 18.434 24.6081C18.0758 24.6216 17.6203 24.5357 17.4039 24.4924C17.0306 24.4164 16.4359 24.6367 16.3411 25.0662" fill="white"/>
<path fill-rule="evenodd" clip-rule="evenodd" d="M16.4767 26.8441L16.3495 25.9723L16.6568 25.9286C16.7315 25.919 16.8226 25.9313 16.8591 25.9752C16.8993 26.0211 16.9117 26.0591 16.9194 26.1194C16.9311 26.194 16.9081 26.28 16.8187 26.323V26.3256C16.9185 26.3256 16.9788 26.3929 16.9964 26.5066C16.9989 26.5307 17.0066 26.5886 16.9989 26.6369C16.9786 26.752 16.9055 26.7892 16.782 26.8054L16.4767 26.8441ZM16.6746 26.6882C16.711 26.6832 16.748 26.6814 16.7769 26.6641C16.8212 26.637 16.8171 26.5791 16.8109 26.536C16.7956 26.4414 16.7693 26.4054 16.6624 26.4203L16.5951 26.43L16.6377 26.6929L16.6746 26.6882ZM16.6103 26.2851C16.651 26.279 16.706 26.2744 16.729 26.2381C16.7411 26.2139 16.7565 26.1947 16.7463 26.1409C16.7338 26.0772 16.7113 26.0375 16.6249 26.0529L16.5445 26.065L16.5762 26.2884L16.6103 26.2851Z" fill="white"/>
<path fill-rule="evenodd" clip-rule="evenodd" d="M17.8079 26.3197C17.8103 26.3359 17.8131 26.354 17.8141 26.3702C17.8389 26.5291 17.8079 26.6608 17.6174 26.6971C17.3358 26.7479 17.2818 26.5838 17.2324 26.354L17.206 26.2295C17.1672 26.0097 17.1505 25.8432 17.425 25.7918C17.5797 25.7654 17.682 25.8232 17.7246 25.9677C17.7312 25.9893 17.7395 26.0106 17.7426 26.0323L17.5742 26.065C17.5547 26.0106 17.5289 25.9135 17.4532 25.9217C17.3171 25.9371 17.3621 26.0958 17.376 26.1623L17.4267 26.401C17.4419 26.4732 17.4721 26.5885 17.5898 26.5662C17.6853 26.5482 17.6436 26.4086 17.6351 26.3512" fill="white"/>
<path fill-rule="evenodd" clip-rule="evenodd" d="M18.0779 26.5835L18.0197 25.6812L18.2459 25.6165L18.7203 26.4012L18.5421 26.4512L18.4297 26.2518L18.2319 26.3075L18.2575 26.5343L18.0779 26.5835ZM18.2157 26.1616L18.3587 26.1228L18.1688 25.7577L18.2157 26.1616Z" fill="white"/>
<path fill-rule="evenodd" clip-rule="evenodd" d="M12.4892 25.9013C12.56 25.6887 12.6234 25.532 12.8937 25.6016C13.0383 25.6395 13.1279 25.6993 13.1237 25.8569C13.1229 25.892 13.1106 25.9279 13.1025 25.9624L12.9343 25.9189C12.9564 25.8318 12.9704 25.7627 12.8561 25.7297C12.724 25.6957 12.6918 25.8461 12.6736 25.911L12.6052 26.1474C12.5834 26.2176 12.5574 26.3337 12.6736 26.3637C12.7697 26.3879 12.8278 26.2995 12.8626 26.1703L12.745 26.141L12.7857 26.0042L13.0624 26.0877L12.931 26.5435L12.8037 26.5111L12.8324 26.4147H12.8288C12.7701 26.4936 12.6986 26.5019 12.636 26.4905C12.3593 26.4204 12.3882 26.2507 12.4543 26.0239" fill="white"/>
<path fill-rule="evenodd" clip-rule="evenodd" d="M13.5189 26.2864L13.4356 26.6572L13.248 26.6193L13.4479 25.7532L13.7677 25.8209C13.9548 25.8589 14.0113 25.937 13.9848 26.0981C13.9697 26.1905 13.9212 26.2899 13.8027 26.2819L13.8014 26.2804C13.9016 26.3133 13.9101 26.3608 13.8926 26.4427C13.8851 26.4776 13.833 26.6892 13.8689 26.7234L13.8701 26.7494L13.6761 26.7018C13.668 26.6433 13.6955 26.5378 13.7064 26.4793C13.7173 26.4276 13.7348 26.3547 13.6789 26.3274C13.6352 26.3055 13.6188 26.3066 13.5693 26.296L13.5189 26.2864ZM13.551 26.1521L13.6773 26.1841C13.754 26.1946 13.7966 26.1573 13.8117 26.0702C13.8254 25.9905 13.8077 25.9594 13.7389 25.944L13.6035 25.9181L13.551 26.1521Z" fill="white"/>
<path fill-rule="evenodd" clip-rule="evenodd" d="M14.7221 25.947L14.9076 25.9672L14.8277 26.5761C14.7889 26.7691 14.7094 26.8534 14.4831 26.8271C14.2529 26.7997 14.1983 26.7014 14.2122 26.5068L14.2927 25.8985L14.4796 25.9185L14.3994 26.5132C14.3908 26.5778 14.375 26.6735 14.4973 26.6852C14.6059 26.6929 14.6305 26.6253 14.6429 26.5414" fill="white"/>
<path fill-rule="evenodd" clip-rule="evenodd" d="M15.1117 26.8602L15.1676 25.9896L15.5239 26.004C15.6924 26.0119 15.7364 26.1409 15.7312 26.2641C15.7262 26.339 15.7014 26.4226 15.6318 26.468C15.5748 26.5066 15.5014 26.5157 15.4335 26.5126L15.3174 26.5066L15.2942 26.8714L15.1117 26.8602ZM15.3229 26.3739L15.4173 26.3788C15.494 26.3814 15.5448 26.353 15.5514 26.2473C15.5553 26.1459 15.5143 26.1286 15.4149 26.1245L15.3402 26.1221L15.3229 26.3739Z" fill="white"/>
<path fill-rule="evenodd" clip-rule="evenodd" d="M40.248 18.7074L38.8316 21.1202C38.297 20.7127 37.6442 20.4129 36.8113 20.4129C34.8401 20.4129 34.0394 21.7918 34.0394 22.7631C34.0394 23.4842 34.5424 24.5479 36.2963 24.5479C37.0326 24.5479 38.0791 24.0673 38.3803 23.8486L36.9795 26.6478C36.3117 26.7729 36.0923 26.8504 35.5271 26.8668C32.3878 26.9547 31.1194 25.1449 31.1202 23.2956C31.1224 20.8508 33.4384 17.8777 37.2779 17.8777C37.5131 17.8777 37.8008 17.9541 38.0469 18.0388L38.2956 17.7402" fill="white"/>
<path fill-rule="evenodd" clip-rule="evenodd" d="M46.0926 17.8162L46.4937 26.5853H43.5086L43.507 25.0815H41.4714L40.8016 26.5853H37.5642L40.9488 20.3234L40.1856 20.3188L41.6356 17.8162H46.0926ZM43.4874 20.4987L42.3367 23.0494H43.5222L43.4874 20.4987Z" fill="white"/>
<path fill-rule="evenodd" clip-rule="evenodd" d="M29.2352 17.8161C30.7134 17.8239 31.5488 18.577 31.5488 19.6647C31.5488 20.6676 30.6678 21.5552 29.7007 22.0142C30.6964 22.3578 30.7825 23.201 30.7825 23.7974C30.7825 25.2387 29.2416 26.5853 27.2386 26.5853H22.8701L24.5741 20.4106L23.8742 20.4068L25.305 17.8161C25.305 17.8161 28.0331 17.8084 29.2352 17.8161ZM27.785 21.3716C28.0908 21.3716 28.6307 21.2989 28.7657 20.7435C28.9136 20.1406 28.4069 20.1243 28.1639 20.1243L27.2954 20.1209L26.9925 21.3716H27.785ZM26.5569 22.9213L26.1571 24.3625H27.1797C27.582 24.3625 28.1303 24.175 28.2646 23.706C28.3973 23.2357 28.014 22.9213 27.6133 22.9213H26.5569Z" fill="white"/>
<path fill-rule="evenodd" clip-rule="evenodd" d="M15.5983 27.6629C14.0857 27.6629 12.5314 27.3133 10.979 26.6218L10.941 26.6042L10.9227 26.5678C10.2261 25.1878 9.8576 23.6785 9.8576 22.2017C9.8576 20.7271 10.211 19.2823 10.908 17.9041L10.9273 17.8675L10.9661 17.8492C12.4021 17.2108 13.9468 16.8875 15.559 16.8875C17.0606 16.8875 18.6645 17.2474 20.1963 17.9303L20.2355 17.9468L20.2537 17.9841C20.9636 19.3895 21.338 20.8985 21.338 22.3509C21.338 23.7975 20.9785 25.2436 20.2677 26.6482L20.2491 26.685L20.2095 26.7021C18.7954 27.3304 17.2008 27.6629 15.5983 27.6629ZM11.1227 26.4326C12.6306 27.0984 14.1348 27.4345 15.5983 27.4345C17.1501 27.4345 18.6934 27.1162 20.0673 26.5127C20.7497 25.1517 21.0957 23.7509 21.0957 22.3509C21.0957 20.9452 20.7346 19.4831 20.0516 18.1189C18.5651 17.4631 17.0127 17.1153 15.559 17.1153C13.9982 17.1153 12.5022 17.426 11.1097 18.0389C10.4412 19.3747 10.1009 20.7744 10.1009 22.2017C10.1009 23.6316 10.4544 25.0943 11.1227 26.4326Z" fill="white"/>
</svg>
