<svg width="47" height="32" viewBox="0 0 47 32" fill="none" xmlns="http://www.w3.org/2000/svg">
<rect width="46.1074" height="32" rx="5.76117" fill="#00529C"/>
<path fill-rule="evenodd" clip-rule="evenodd" d="M13.6681 15.8823H15.8656C16.7555 15.8823 17.4189 16.2649 17.4189 17.0703C17.4189 17.6608 17.1114 17.9896 16.5772 18.1639V18.1771C17.2139 18.305 17.5425 18.6406 17.5425 19.2107C17.5425 20.3316 16.5359 20.5663 15.6804 20.5663H13.6681V15.8823ZM14.9413 17.7346H15.2976C15.7151 17.7346 16.1466 17.6339 16.1466 17.2376C16.1466 16.8087 15.7357 16.7681 15.3109 16.7681H14.9413V17.7346ZM14.9413 19.6808H15.3184C15.7834 19.6808 16.2693 19.6136 16.2693 19.1371C16.2693 18.6275 15.7699 18.5801 15.3317 18.5801H14.9413V19.6808Z" fill="white"/>
<path fill-rule="evenodd" clip-rule="evenodd" d="M19.2135 15.8823H20.7743L22.6158 20.5663H21.2191L20.8635 19.5667H19.0699L18.6932 20.5663H17.3995L19.2135 15.8823ZM19.9939 16.8486H19.9796L19.3639 18.6808H20.5617L19.9939 16.8486Z" fill="white"/>
<path fill-rule="evenodd" clip-rule="evenodd" d="M22.7932 15.8823H24.4155L26.0311 19.0634H26.0444L26.0242 15.8823H27.1883V20.5663H25.6069L23.9361 17.3654H23.9229L23.9638 20.5663H22.7932V15.8823Z" fill="white"/>
<path fill-rule="evenodd" clip-rule="evenodd" d="M27.6205 15.8823H28.8935V17.7954H28.9073L30.3443 15.8823H31.8783L30.1118 18.0632L32.0151 20.5663H30.3923L28.9073 18.4392H28.8935V20.5663H27.6205V15.8823Z" fill="white"/>
<path fill-rule="evenodd" clip-rule="evenodd" d="M33.5936 15.8823H35.7912C36.6809 15.8823 37.3451 16.2649 37.3451 17.0703C37.3451 17.6608 37.0376 17.9896 36.5033 18.1639V18.1771C37.1399 18.305 37.4684 18.6406 37.4684 19.2107C37.4684 20.3316 36.4621 20.5663 35.6068 20.5663H33.5936V15.8823ZM34.8671 17.7346H35.2227C35.6405 17.7346 36.0714 17.6339 36.0714 17.2376C36.0714 16.8087 35.6611 16.7681 35.2369 16.7681H34.8671V17.7346ZM34.8671 19.6808H35.2438C35.7088 19.6808 36.1951 19.6136 36.1951 19.1371C36.1951 18.6275 35.6955 18.5801 35.2573 18.5801H34.8671V19.6808Z" fill="white"/>
<path fill-rule="evenodd" clip-rule="evenodd" d="M37.7506 15.8823H40.0234C40.872 15.8823 41.5638 16.2579 41.5638 17.0637C41.5638 17.6877 41.2625 18.1038 40.6466 18.2445V18.2578C41.0564 18.3655 41.0843 18.7209 41.3239 19.2913L41.7896 20.5663H40.4618L40.1878 19.7213C39.9275 18.9159 39.7631 18.7141 39.2908 18.7141H39.0237V20.5663H37.7506V15.8823ZM39.024 17.8286H39.3596C39.7703 17.8286 40.2908 17.8149 40.2908 17.2848C40.2908 16.849 39.8453 16.7681 39.3596 16.7681H39.024V17.8286Z" fill="white"/>
<mask id="mask0_2211_4339" style="mask-type:luminance" maskUnits="userSpaceOnUse" x="2" y="13" width="42" height="10">
<path fill-rule="evenodd" clip-rule="evenodd" d="M2.63464 22.9317H43.4134V13.52H2.63464V22.9317Z" fill="white"/>
</mask>
<g mask="url(#mask0_2211_4339)">
<path fill-rule="evenodd" clip-rule="evenodd" d="M42.1401 20.5663H43.4132V15.8823H42.1401V20.5663Z" fill="white"/>
<path fill-rule="evenodd" clip-rule="evenodd" d="M10.7627 13.52H4.099C3.29016 13.52 2.63446 14.1787 2.63446 14.9915V15.007V21.4606C2.63446 22.2654 3.27808 22.9196 4.0765 22.9317H10.7591C11.5682 22.9317 12.2241 22.273 12.2241 21.4606L12.2272 14.9915C12.2272 14.1787 11.5717 13.52 10.7627 13.52ZM4.89112 22.1778L4.52753 22.1817C4.08748 22.1817 3.73078 21.8273 3.73078 21.39L3.72869 21.3277V15.3532L3.73098 15.0315C3.74744 14.6083 4.0754 14.2676 4.50503 14.2676H5.24407C5.91373 14.2676 6.45692 14.8385 6.45692 15.5121C6.45692 15.845 6.32378 16.1473 6.10813 16.3671L4.2225 18.2428L5.98978 20.0069C6.21772 20.2371 6.35545 20.5399 6.35545 20.8714C6.35545 21.593 5.69975 22.1778 4.89112 22.1778ZM10.3242 22.1719L7.0292 22.1704C7.0292 22.1704 7.41028 21.3632 7.41028 20.8636C7.41028 20.2545 7.20234 19.7102 6.87709 19.3501L5.75009 18.2238L6.90043 17.0587C7.24276 16.7432 7.47029 16.1831 7.47029 15.5452C7.47029 15.0401 7.32777 14.5925 7.09837 14.2676H7.89679C8.56666 14.2676 9.10985 14.8385 9.10985 15.5121C9.10985 15.845 8.97692 16.1473 8.76127 16.3671L6.91168 18.2232L10.7532 22.0634C10.6315 22.1386 10.4779 22.1719 10.3242 22.1719ZM11.1288 20.973L8.37573 18.2225L9.68692 16.9161C9.95404 16.5891 10.1232 16.0962 10.1232 15.5453C10.1232 15.0369 9.97862 14.5786 9.74714 14.2534L10.3341 14.2706C10.7741 14.2706 11.1308 14.6256 11.1308 15.0627L11.1288 20.973Z" fill="white"/>
</g>
</svg>
