<svg width="58" height="44" viewBox="0 0 58 44" fill="none" xmlns="http://www.w3.org/2000/svg">
<rect x="3" y="3" width="52" height="38" rx="9" stroke="white" stroke-opacity="0.2" stroke-width="6"/>
<rect x="6" y="6" width="46" height="32" rx="5.76117" fill="#108EE9"/>
<path fill-rule="evenodd" clip-rule="evenodd" d="M15.9292 16.8804H15.7759C14.5017 16.9065 13.2466 17.403 12.3213 18.2572C11.2364 19.2354 10.6139 20.6607 10.6001 22.0973V22.231C10.6262 23.6377 11.2311 25.0302 12.2845 25.9979C13.2175 26.876 14.4963 27.3875 15.7943 27.4084H15.9445C17.6987 27.389 19.3869 26.4325 20.2992 24.9787C21.0797 23.7736 21.3196 22.2579 20.9731 20.8758C20.6825 19.6834 19.9496 18.597 18.9345 17.8712C18.072 17.244 17.0048 16.8998 15.9292 16.8804ZM13.5472 21.1579C14.0425 21.299 14.5707 21.2131 15.0529 21.0615C15.3187 20.9762 15.5803 20.8787 15.8419 20.7812C16.2648 20.6235 16.6878 20.4658 17.1283 20.3597C17.7179 20.2253 18.3803 20.3335 18.8525 20.7143C18.946 20.8017 18.9458 20.928 18.9456 21.0478C18.9455 21.0774 18.9455 21.1066 18.9468 21.1347C18.9416 21.5202 18.9434 21.9058 18.9453 22.2913V22.2913V22.2913V22.2914V22.2914C18.9481 22.8595 18.9508 23.4276 18.9307 23.9952C18.8596 23.9657 18.7888 23.9344 18.7179 23.9031L18.7179 23.9031C18.4261 23.774 18.1326 23.6443 17.8045 23.6383C17.1201 23.6016 16.4875 23.8229 15.8537 24.0445L15.8537 24.0445C15.3379 24.2248 14.8214 24.4055 14.2755 24.4477C13.7803 24.4813 13.2628 24.367 12.861 24.0766C12.7787 23.9656 12.7828 23.8268 12.7868 23.6908C12.7885 23.6356 12.7901 23.5808 12.7859 23.5285C12.7935 23.1835 12.7901 22.8379 12.7868 22.4922V22.4922V22.4922V22.4922V22.4922C12.7813 21.9349 12.7759 21.3775 12.8166 20.8226C12.9069 20.8618 12.9939 20.9085 13.0808 20.9551L13.0808 20.9551L13.0808 20.9551L13.0808 20.9551L13.0808 20.9551L13.0808 20.9551C13.2306 21.0355 13.3803 21.1158 13.5472 21.1579ZM23.9408 19.5026C23.6696 19.5043 23.3985 19.5059 23.1274 19.5028C23.1271 20.3891 23.1271 21.2756 23.1271 22.1621C23.1271 23.0487 23.1271 23.9354 23.1267 24.822C23.4287 24.8224 23.7306 24.8224 24.0325 24.8224C24.3344 24.8224 24.6362 24.8224 24.9383 24.8228C25.3776 24.8235 25.8215 24.7414 26.214 24.5435C27.2582 24.0448 27.8631 22.8456 27.663 21.7338C27.4974 20.5765 26.4594 19.5931 25.2534 19.5147C24.816 19.4972 24.3784 19.4999 23.9408 19.5026ZM24.2689 23.2423V23.2421C24.2711 22.3769 24.2734 21.5117 24.2655 20.6465C24.3826 20.65 24.5004 20.648 24.6183 20.646C24.8762 20.6416 25.1346 20.6372 25.3871 20.6905C26.0166 20.8309 26.5019 21.4021 26.5463 22.0263C26.613 22.6475 26.2427 23.2889 25.6539 23.5428C25.3348 23.6897 24.984 23.6825 24.6368 23.6755C24.5128 23.673 24.3893 23.6704 24.2678 23.675L24.2689 23.2423ZM29.6915 21.6535C29.7283 20.4999 30.7947 19.4636 31.9938 19.5031C33.1691 19.4912 34.201 20.5052 34.2478 21.6364C34.26 22.2862 34.2581 22.9364 34.2562 23.5865V23.5865V23.5866V23.5866C34.255 23.9978 34.2538 24.409 34.2562 24.8201L34.2554 24.8201H34.2554H34.2554H34.2553C33.8746 24.8209 33.4946 24.8216 33.1146 24.8201C33.1127 24.6297 33.1129 24.4393 33.1131 24.249V24.2485V24.2485V24.2484C33.1133 24.0583 33.1135 23.8683 33.1116 23.6785C32.6633 23.6807 32.2153 23.6803 31.7674 23.6799H31.7673H31.7673H31.7672C31.4537 23.6796 31.1403 23.6794 30.8269 23.68C30.8258 23.8219 30.8263 23.964 30.8269 24.106V24.1061V24.1061V24.1061C30.8278 24.3459 30.8288 24.5858 30.8215 24.8254C30.5686 24.8194 30.316 24.8201 30.0634 24.8207H30.0634H30.0634H30.0633H30.0633H30.0632H30.0632C29.937 24.8211 29.8108 24.8214 29.6846 24.8209C29.686 24.437 29.6849 24.0529 29.6839 23.6689V23.6686C29.6821 22.9967 29.6803 22.3248 29.6915 21.6535ZM31.1187 21.0276C30.8076 21.355 30.8167 21.7968 30.8254 22.2202V22.2203V22.2204V22.2205C30.8276 22.328 30.8297 22.4344 30.8266 22.5374C31.1311 22.5377 31.4357 22.5375 31.7404 22.5373H31.7404H31.7404H31.7405C32.1975 22.537 32.6545 22.5368 33.1113 22.5381C33.1085 22.4355 33.1109 22.3297 33.1134 22.2227V22.2226V22.2225V22.2224C33.1229 21.8086 33.1329 21.3776 32.8399 21.0507C32.4313 20.5281 31.5419 20.5161 31.1187 21.0276ZM36.2535 21.6655C36.2872 20.6501 37.1022 19.7078 38.1364 19.5368C38.9062 19.3927 39.7311 19.6876 40.2325 20.2715C40.6204 20.6874 40.8182 21.2504 40.8182 21.8089C40.8197 22.4784 40.8192 23.1475 40.8187 23.8168C40.8185 24.1515 40.8182 24.4862 40.8182 24.821C40.6889 24.8217 40.5595 24.8213 40.4301 24.8208H40.4301C40.1804 24.8199 39.9307 24.8191 39.6812 24.8269C39.673 24.2581 39.6743 23.6891 39.6757 23.1201V23.1198C39.6767 22.682 39.6777 22.2443 39.6744 21.8067C39.6805 21.4005 39.4574 20.9958 39.0925 20.7942C38.7137 20.5732 38.2008 20.606 37.8535 20.8718C37.553 21.0906 37.3851 21.455 37.3904 21.8179C37.3887 22.39 37.3889 22.9619 37.3892 23.5339C37.3894 23.9628 37.3896 24.3918 37.3889 24.821C37.2498 24.8204 37.1107 24.8207 36.9716 24.8209C36.7281 24.8213 36.4847 24.8218 36.2412 24.818C36.2493 24.3116 36.2479 23.805 36.2464 23.2984V23.2981C36.2448 22.7538 36.2432 22.2096 36.2535 21.6655ZM43.181 20.5337C43.6218 19.8647 44.436 19.4332 45.2586 19.5093C46.1886 19.5653 47.0135 20.2552 47.2711 21.1176C47.3662 21.4088 47.3708 21.713 47.3753 22.0168C47.3778 22.1907 47.3804 22.3644 47.3999 22.5356V24.8151C47.1078 24.823 46.8158 24.822 46.5237 24.821C46.4263 24.8207 46.3289 24.8204 46.2315 24.8204C46.2311 24.6977 46.2313 24.575 46.2315 24.4523C46.232 24.1931 46.2324 23.9339 46.2262 23.675C45.7637 23.6818 45.301 23.6809 44.8382 23.6799C44.5406 23.6793 44.243 23.6787 43.9453 23.6802C43.945 23.8702 43.945 24.0603 43.945 24.2504C43.945 24.4405 43.945 24.6307 43.9446 24.8211H42.8022C42.8019 24.3309 42.8019 23.8409 42.8019 23.351C42.8019 22.8611 42.8019 22.3713 42.8015 21.8815C42.7961 21.4096 42.9119 20.9302 43.181 20.5337ZM44.2315 21.0354C43.9265 21.3616 43.9356 21.7999 43.9443 22.22V22.2201C43.9465 22.3279 43.9487 22.4345 43.9456 22.5377C44.4537 22.5382 44.9618 22.538 45.4696 22.5378L46.231 22.5377C46.2276 22.4324 46.23 22.3237 46.2324 22.2139V22.2138C46.2414 21.8017 46.2508 21.3736 45.9573 21.0488C45.5448 20.5254 44.6517 20.5187 44.2315 21.0354Z" fill="white"/>
</svg>
