<svg width="58" height="44" viewBox="0 0 58 44" fill="none" xmlns="http://www.w3.org/2000/svg">
<rect x="3" y="3" width="52" height="38" rx="9" stroke="white" stroke-opacity="0.2" stroke-width="6"/>
<rect x="6" y="6" width="46" height="32" rx="5.76117" fill="#003D79"/>
<path fill-rule="evenodd" clip-rule="evenodd" d="M9.32678 22.9481C9.32678 22.3743 9.31641 21.8927 9.28528 21.4632H10.3652L10.4158 22.201H10.4461C10.6909 21.8111 11.1385 21.3501 11.9735 21.3501C12.6252 21.3501 13.1342 21.7197 13.3477 22.2726H13.3686C13.542 21.9961 13.745 21.7914 13.9789 21.6475C14.2541 21.4531 14.5698 21.3501 14.9771 21.3501C15.8016 21.3501 16.6359 21.9133 16.6359 23.5114V26.4506H15.4143V23.696C15.4143 22.8665 15.1297 22.3743 14.5294 22.3743C14.1011 22.3743 13.7851 22.6821 13.6537 23.0407C13.6227 23.1633 13.5922 23.317 13.5922 23.4594V26.4506H12.3703V23.5624C12.3703 22.8665 12.0958 22.3743 11.5154 22.3743C11.047 22.3743 10.7318 22.7436 10.6195 23.091C10.5683 23.2147 10.5477 23.3577 10.5477 23.5008V26.4506H9.32678V22.9481Z" fill="white"/>
<path fill-rule="evenodd" clip-rule="evenodd" d="M21.3952 25.2524C21.3952 25.7028 21.4156 26.1425 21.4665 26.4506H20.3361L20.2549 25.8977H20.224C19.9187 26.2872 19.3995 26.5633 18.7582 26.5633C17.7602 26.5633 17.2006 25.8367 17.2006 25.0784C17.2006 23.8182 18.3099 23.1838 20.1426 23.194V23.1117C20.1426 22.7838 20.0101 22.2414 19.1346 22.2414C18.6457 22.2414 18.1365 22.3951 17.8007 22.6098L17.556 21.7912C17.9232 21.5654 18.5652 21.3501 19.3485 21.3501C20.9374 21.3501 21.3952 22.3647 21.3952 23.4498V25.2524ZM20.1727 24.0135C19.2871 23.9929 18.4423 24.1874 18.4423 24.9454C18.4423 25.4365 18.7578 25.6623 19.155 25.6623C19.6533 25.6623 20.0204 25.3345 20.132 24.9761C20.1623 24.884 20.1727 24.7811 20.1727 24.6995V24.0135Z" fill="white"/>
<path fill-rule="evenodd" clip-rule="evenodd" d="M22.2613 22.9481C22.2613 22.3743 22.2501 21.8927 22.2205 21.4632H23.3191L23.3805 22.2108H23.4106C23.6246 21.8221 24.1642 21.3501 24.9887 21.3501C25.8543 21.3501 26.7502 21.9133 26.7502 23.4909V26.4506H25.4981V23.6346C25.4981 22.9172 25.2334 22.3743 24.5512 22.3743C24.0523 22.3743 23.7063 22.7328 23.5736 23.1119C23.5335 23.2248 23.523 23.3788 23.523 23.5212V26.4506H22.2613V22.9481Z" fill="white"/>
<path fill-rule="evenodd" clip-rule="evenodd" d="M32.1794 19.459V25.0469C32.1794 25.5589 32.1994 26.1129 32.2199 26.4505H31.0999L31.0498 25.662H31.029C30.7336 26.2153 30.132 26.5632 29.41 26.5632C28.2295 26.5632 27.2926 25.5495 27.2926 24.0133C27.2822 22.3437 28.3206 21.35 29.5117 21.35C30.1936 21.35 30.6827 21.6372 30.9063 22.0061H30.9269V19.459H32.1794ZM30.9265 23.5418C30.9265 23.4404 30.9161 23.3169 30.8964 23.2148C30.7843 22.7232 30.387 22.3235 29.8168 22.3235C29.0126 22.3235 28.5646 23.0408 28.5646 23.9728C28.5646 24.8841 29.0126 25.5499 29.8067 25.5499C30.3155 25.5499 30.7637 25.2018 30.8858 24.6591C30.9161 24.546 30.9265 24.4232 30.9265 24.2896V23.5418Z" fill="white"/>
<path fill-rule="evenodd" clip-rule="evenodd" d="M33.0642 26.4503H34.3279V21.4633H33.0642V26.4503Z" fill="white"/>
<path fill-rule="evenodd" clip-rule="evenodd" d="M35.2129 23.0706C35.2129 22.395 35.2023 21.9129 35.1719 21.4628H36.2615L36.3013 22.4149H36.3435C36.5875 21.7083 37.1679 21.4628 37.6971 21.4628C37.819 21.4628 37.8902 21.4418 37.9923 21.4628V22.5692C37.8902 22.5487 37.7784 22.5283 37.6257 22.5283C37.0251 22.5283 36.6176 22.9171 36.5057 23.48C36.4859 23.5927 36.4653 23.7264 36.4653 23.8705V26.4504H35.2129V23.0706Z" fill="white"/>
<path fill-rule="evenodd" clip-rule="evenodd" d="M38.5721 26.4503H39.834V21.4633H38.5721V26.4503Z" fill="white"/>
<path fill-rule="evenodd" clip-rule="evenodd" d="M38.2741 15.4334C37.5162 15.8749 35.7284 16.9064 35.061 17.2905C34.6543 17.499 33.7122 17.59 33.1794 16.8673C33.1699 16.8542 32.4708 15.9754 32.4422 15.9424C32.4222 15.919 31.9702 15.2446 30.9631 15.2235C30.8143 15.22 30.0745 15.216 29.3527 15.6287C28.3932 16.1801 26.1618 17.4635 26.1618 17.4635C26.1611 17.4635 26.1611 17.4646 26.16 17.4646C25.2428 17.9926 24.5281 18.4036 24.5281 18.4036L25.3725 19.4469C25.7675 19.9403 26.6583 20.322 27.4307 19.8759C27.4307 19.8759 30.2851 18.2131 30.2955 18.2083C31.53 17.5273 32.4825 17.5273 33.1147 17.7807C33.6821 18.0219 34.1758 18.6229 34.1758 18.6229C34.1758 18.6229 34.821 19.4273 34.9348 19.568C35.3019 20.0225 35.9095 19.8439 35.9095 19.8439C35.9095 19.8439 36.1347 19.8183 36.4741 19.6156C36.4741 19.6156 39.2389 18.0029 39.2406 18.0024C40.1185 17.4842 40.9237 17.3875 41.3352 17.4256C42.6241 17.5434 43.0245 18.4492 43.5834 19.0811C43.9125 19.4528 44.2095 19.6639 44.6636 19.6532C44.962 19.6469 45.2992 19.4648 45.3489 19.432L48.6596 17.5099C48.6596 17.5099 48.3199 16.9952 47.6242 16.1944C47.0015 15.48 46.3402 15.8032 45.8129 16.0659C45.5913 16.1762 44.7887 16.7133 43.9934 17.088C43.4268 17.3549 42.6129 17.2747 42.1669 16.7202C42.1402 16.6865 41.4186 15.8076 41.3427 15.6995C41.0514 15.3325 40.4832 15.0038 39.7549 15.0038C39.312 15.0038 38.8095 15.1253 38.2741 15.4334Z" fill="url(#paint0_linear_2211_4314)"/>
<defs>
<linearGradient id="paint0_linear_2211_4314" x1="24.5281" y1="20.0734" x2="48.6596" y2="20.0734" gradientUnits="userSpaceOnUse">
<stop stop-color="#FFCA06"/>
<stop offset="0.330844" stop-color="#FBAA18"/>
<stop offset="0.694742" stop-color="#FFC907"/>
<stop offset="1" stop-color="#FAA619"/>
</linearGradient>
</defs>
</svg>
