<svg width="57" height="44" viewBox="0 0 57 44" fill="none" xmlns="http://www.w3.org/2000/svg">
<rect x="3" y="3" width="51" height="38" rx="9" stroke="white" stroke-opacity="0.2" stroke-width="6"/>
<rect x="6" y="6" width="45" height="32" rx="5.76117" fill="#4C3494"/>
<path fill-rule="evenodd" clip-rule="evenodd" d="M42.7621 18.1348C41.7049 17.2054 40.2512 16.771 38.853 16.9038C38.5036 16.9355 38.157 16.9974 37.8207 17.0965C36.5884 17.4494 35.5077 18.2899 34.8625 19.3921C33.995 20.8456 33.8911 22.7112 34.5607 24.2611C35.058 25.4286 36.0085 26.3977 37.1739 26.9115C38.4973 27.4951 40.0636 27.5128 41.3989 26.9562C42.0795 26.671 42.6968 26.2355 43.1917 25.6899C44.0954 24.7072 44.5762 23.3661 44.5455 22.0383C44.5376 20.5656 43.8885 19.0976 42.7621 18.1348ZM36.7084 19.9783C37.2053 19.2407 38.0248 18.7265 38.912 18.6168C39.6154 18.5216 40.3531 18.6611 40.9625 19.0281C41.5479 19.3739 42.0055 19.9164 42.2789 20.5348C42.8191 21.7686 42.6979 23.2977 41.8823 24.3858C41.4956 24.9013 40.9526 25.3031 40.3362 25.5013C39.5619 25.7524 38.6901 25.6983 37.9567 25.3446C37.3784 25.0677 36.8949 24.6087 36.5742 24.0564C35.8574 22.8164 35.8987 21.1658 36.7084 19.9783ZM20.042 17.4472C19.088 16.9549 17.9777 16.7904 16.9163 16.9306C15.893 17.0618 14.9094 17.5036 14.1461 18.1969C13.3632 18.8941 12.8136 19.84 12.576 20.8572C12.2892 22.0647 12.4214 23.3725 12.9702 24.4892C13.4742 25.5322 14.3499 26.3927 15.4055 26.8788C16.4508 27.3629 17.6559 27.4788 18.7811 27.2434C19.8622 27.0194 20.8607 26.4288 21.5803 25.5953C22.2664 24.808 22.6937 23.808 22.8137 22.7744C22.9298 21.8105 22.7862 20.8152 22.3916 19.9265C21.9238 18.8655 21.0815 17.9705 20.042 17.4472ZM15.7977 19.1735C16.2186 18.8707 16.7179 18.6803 17.2321 18.6145C17.8478 18.5354 18.4887 18.6326 19.0454 18.9095C19.7009 19.2279 20.2269 19.7853 20.5365 20.4401C20.8882 21.1702 20.9838 22.0119 20.8512 22.8078C20.7289 23.534 20.3956 24.2347 19.8629 24.7517C19.405 25.2119 18.796 25.5186 18.1535 25.6177C17.3667 25.7411 16.5314 25.5715 15.872 25.1219C15.191 24.6695 14.713 23.9476 14.5065 23.1639C14.3027 22.3899 14.3282 21.5533 14.5946 20.7974C14.8212 20.1534 15.2374 19.5706 15.7977 19.1735ZM23.2883 17.1642L23.288 17.1642C23.2877 17.5381 23.2878 17.9122 23.2879 18.2864C23.2879 18.4735 23.288 18.6606 23.288 18.8477C23.5429 18.8483 23.7976 18.8482 24.0524 18.8481C24.1374 18.8481 24.2223 18.8481 24.3073 18.8481C24.9378 20.2919 25.5674 21.7361 26.197 23.1803C26.6542 24.2289 27.1114 25.2775 27.5688 26.326C27.7817 26.8124 28.229 27.1919 28.7495 27.3122C28.9389 27.3615 29.1342 27.3595 29.3288 27.3575C29.3894 27.3569 29.4498 27.3563 29.51 27.3572C30.1073 25.9566 30.7065 24.5568 31.3058 23.157C32.0201 21.4883 32.7345 19.8196 33.4454 18.1497C33.4636 17.9465 33.4608 17.7414 33.458 17.5362C33.4563 17.412 33.4547 17.2877 33.4576 17.1638H30.1537V17.167C30.1533 17.7276 30.1529 18.2878 30.1537 18.8481C30.2975 18.8482 30.4413 18.8482 30.5851 18.8481C30.7769 18.8481 30.9687 18.848 31.1604 18.8485C30.8974 19.49 30.635 20.1317 30.3726 20.7735C29.8638 22.018 29.355 23.2626 28.8416 24.505C28.4417 23.5623 28.0419 22.6196 27.6421 21.6769C27.2423 20.7341 26.8424 19.7913 26.4425 18.8485C26.6116 18.8479 26.7809 18.848 26.9502 18.8481C27.1195 18.8482 27.2889 18.8483 27.4583 18.8477V17.1642C26.0684 17.1635 24.6785 17.1638 23.2883 17.1642Z" fill="white"/>
</svg>
