<svg width="57" height="44" viewBox="0 0 57 44" fill="none" xmlns="http://www.w3.org/2000/svg">
<rect x="3" y="3" width="51" height="38" rx="9" stroke="white" stroke-opacity="0.2" stroke-width="6"/>
<rect x="6" y="6" width="45" height="32" rx="5.76117" fill="white"/>
<path fill-rule="evenodd" clip-rule="evenodd" d="M24.9273 14.3198H29.3142C30.5498 14.3198 32.0152 14.3598 32.9955 15.2205C33.6503 15.7955 33.994 16.7116 33.9146 17.695C33.6456 21.0299 31.6419 22.8978 28.955 22.8978H26.7913C26.4231 22.8978 26.179 23.1407 26.0752 23.7987L25.4714 27.6223C25.4322 27.8704 25.3242 28.0165 25.1271 28.0342H22.4246C22.1248 28.0342 22.0182 27.8059 22.0966 27.3113L24.0426 15.0454C24.1206 14.5538 24.3907 14.3198 24.9273 14.3198Z" fill="#1B3D92"/>
<path fill-rule="evenodd" clip-rule="evenodd" d="M27.7483 18.1603H32.1308C34.4836 18.1603 35.3695 19.346 35.2328 21.0909C35.0072 23.9674 33.2603 25.5579 30.9432 25.5579H29.7733C29.4558 25.5579 29.2421 25.7669 29.1556 26.3349L28.6538 29.6324C28.6212 29.8466 28.5081 29.9724 28.3381 29.9877H25.5901C25.3315 29.9877 25.2396 29.7908 25.3072 29.3642L26.9854 18.7861C27.0526 18.3621 27.2855 18.1603 27.7483 18.1603Z" fill="#00A2D3"/>
<path fill-rule="evenodd" clip-rule="evenodd" d="M25.9285 23.6134L26.6945 18.786C26.7618 18.3622 26.9948 18.1604 27.4577 18.1604H31.8402C32.5657 18.1604 33.1517 18.2731 33.6111 18.4808C33.1707 21.4489 31.2425 23.0979 28.7175 23.0979H26.5538C26.2691 23.0979 26.0563 23.2429 25.9285 23.6134Z" fill="#1B2E7F"/>
</svg>
