<svg width="32" height="32" viewBox="0 0 32 32" fill="none" xmlns="http://www.w3.org/2000/svg">
<path opacity="0.5" fill-rule="evenodd" clip-rule="evenodd" d="M9.66666 8.34398V8.66665C9.66666 8.93186 9.77201 9.18622 9.95955 9.37375C10.1471 9.56129 10.4014 9.66665 10.6667 9.66665C10.9319 9.66665 11.1862 9.56129 11.3738 9.37375C11.5613 9.18622 11.6667 8.93186 11.6667 8.66665V8.33331H20.3333V8.66665C20.3333 8.93186 20.4387 9.18622 20.6262 9.37375C20.8138 9.56129 21.0681 9.66665 21.3333 9.66665C21.5985 9.66665 21.8529 9.56129 22.0404 9.37375C22.228 9.18622 22.3333 8.93186 22.3333 8.66665V8.34398C22.4809 8.34931 22.6151 8.35687 22.736 8.36665C23.12 8.39731 23.3027 8.45331 23.4227 8.51465C23.7373 8.67465 23.992 8.92931 24.152 9.24398C24.2133 9.36398 24.2693 9.54665 24.3 9.92931C24.332 10.324 24.3333 10.836 24.3333 11.6V12.3333H7.66666V11.6C7.66666 10.8373 7.66666 10.324 7.69999 9.92931C7.73066 9.54665 7.78666 9.36398 7.84799 9.24398C8.00787 8.92987 8.26321 8.67452 8.57732 8.51465C8.69732 8.45331 8.87999 8.39731 9.26266 8.36665C9.39711 8.35569 9.53182 8.34813 9.66666 8.34398ZM14 9.33331C13.7348 9.33331 13.4804 9.43867 13.2929 9.62621C13.1053 9.81374 13 10.0681 13 10.3333C13 10.5985 13.1053 10.8529 13.2929 11.0404C13.4804 11.228 13.7348 11.3333 14 11.3333H18C18.2652 11.3333 18.5196 11.228 18.7071 11.0404C18.8946 10.8529 19 10.5985 19 10.3333C19 10.0681 18.8946 9.81374 18.7071 9.62621C18.5196 9.43867 18.2652 9.33331 18 9.33331H14Z" fill="#757575"/>
<path d="M11.3333 18.6666C11.7754 18.6666 12.1993 18.4911 12.5118 18.1785C12.8244 17.8659 13 17.442 13 17C13 16.558 12.8244 16.134 12.5118 15.8215C12.1993 15.5089 11.7754 15.3333 11.3333 15.3333C10.8913 15.3333 10.4674 15.5089 10.1548 15.8215C9.84225 16.134 9.66666 16.558 9.66666 17C9.66666 17.442 9.84225 17.8659 10.1548 18.1785C10.4674 18.4911 10.8913 18.6666 11.3333 18.6666ZM11.3333 23.3333C11.7754 23.3333 12.1993 23.1577 12.5118 22.8452C12.8244 22.5326 13 22.1087 13 21.6666C13 21.2246 12.8244 20.8007 12.5118 20.4881C12.1993 20.1756 11.7754 20 11.3333 20C10.8913 20 10.4674 20.1756 10.1548 20.4881C9.84225 20.8007 9.66666 21.2246 9.66666 21.6666C9.66666 22.1087 9.84225 22.5326 10.1548 22.8452C10.4674 23.1577 10.8913 23.3333 11.3333 23.3333ZM17.6667 17C17.6667 17.442 17.4911 17.8659 17.1785 18.1785C16.8659 18.4911 16.442 18.6666 16 18.6666C15.558 18.6666 15.134 18.4911 14.8215 18.1785C14.5089 17.8659 14.3333 17.442 14.3333 17C14.3333 16.558 14.5089 16.134 14.8215 15.8215C15.134 15.5089 15.558 15.3333 16 15.3333C16.442 15.3333 16.8659 15.5089 17.1785 15.8215C17.4911 16.134 17.6667 16.558 17.6667 17ZM16 23.3333C16.442 23.3333 16.8659 23.1577 17.1785 22.8452C17.4911 22.5326 17.6667 22.1087 17.6667 21.6666C17.6667 21.2246 17.4911 20.8007 17.1785 20.4881C16.8659 20.1756 16.442 20 16 20C15.558 20 15.134 20.1756 14.8215 20.4881C14.5089 20.8007 14.3333 21.2246 14.3333 21.6666C14.3333 22.1087 14.5089 22.5326 14.8215 22.8452C15.134 23.1577 15.558 23.3333 16 23.3333ZM22.3333 17C22.3333 17.442 22.1577 17.8659 21.8452 18.1785C21.5326 18.4911 21.1087 18.6666 20.6667 18.6666C20.2246 18.6666 19.8007 18.4911 19.4881 18.1785C19.1756 17.8659 19 17.442 19 17C19 16.558 19.1756 16.134 19.4881 15.8215C19.8007 15.5089 20.2246 15.3333 20.6667 15.3333C21.1087 15.3333 21.5326 15.5089 21.8452 15.8215C22.1577 16.134 22.3333 16.558 22.3333 17Z" fill="#757575"/>
<path fill-rule="evenodd" clip-rule="evenodd" d="M10.6667 4.33331C10.9319 4.33331 11.1862 4.43867 11.3738 4.62621C11.5613 4.81374 11.6667 5.0681 11.6667 5.33331V6.33331H20.3333V5.33331C20.3333 5.0681 20.4387 4.81374 20.6262 4.62621C20.8138 4.43867 21.0681 4.33331 21.3333 4.33331C21.5985 4.33331 21.8529 4.43867 22.0404 4.62621C22.228 4.81374 22.3333 5.0681 22.3333 5.33331V6.34398C22.536 6.34931 22.7249 6.35909 22.9 6.37331C23.4067 6.41331 23.8813 6.50398 24.3307 6.73331C25.0207 7.08487 25.5818 7.64591 25.9333 8.33598C26.1627 8.78531 26.2533 9.25998 26.2933 9.76665C26.3333 10.2533 26.3333 10.8466 26.3333 11.56V21.7733C26.3333 22.4866 26.3333 23.08 26.2933 23.5666C26.2533 24.0733 26.1627 24.548 25.9333 24.9973C25.5821 25.6872 25.0216 26.2482 24.332 26.6C23.8813 26.8293 23.4067 26.92 22.9 26.96C22.4133 27 21.82 27 21.108 27H10.8933C10.18 27 9.58666 27 9.09999 26.96C8.59332 26.92 8.11866 26.8293 7.66932 26.6C6.97966 26.2491 6.41867 25.6891 6.06666 25C5.83732 24.5493 5.74666 24.0746 5.70666 23.568C5.66666 23.0813 5.66666 22.488 5.66666 21.776V11.56C5.66666 10.8466 5.66666 10.2533 5.70666 9.76665C5.74666 9.25998 5.83732 8.78531 6.06666 8.33598C6.41822 7.64591 6.97925 7.08487 7.66932 6.73331C8.11866 6.50398 8.59332 6.41331 9.09999 6.37331C9.2751 6.35909 9.46399 6.34931 9.66666 6.34398V5.33331C9.66666 5.20199 9.69252 5.07196 9.74278 4.95063C9.79303 4.8293 9.86669 4.71906 9.95955 4.62621C10.0524 4.53335 10.1626 4.45969 10.284 4.40943C10.4053 4.35918 10.5353 4.33331 10.6667 4.33331ZM9.66666 8.66665V8.34398C9.53182 8.34813 9.39711 8.35569 9.26266 8.36665C8.87999 8.39731 8.69732 8.45331 8.57732 8.51465C8.26321 8.67452 8.00787 8.92987 7.84799 9.24398C7.78666 9.36398 7.73066 9.54665 7.69999 9.92931C7.66799 10.324 7.66666 10.836 7.66666 11.6V12.3333H24.3333V11.6C24.3333 10.8373 24.3333 10.324 24.3 9.92931C24.2693 9.54665 24.2133 9.36398 24.152 9.24398C23.9921 8.92987 23.7368 8.67452 23.4227 8.51465C23.3027 8.45331 23.12 8.39731 22.736 8.36665C22.602 8.35571 22.4677 8.34815 22.3333 8.34398V8.66665C22.3333 8.93186 22.228 9.18622 22.0404 9.37375C21.8529 9.56129 21.5985 9.66665 21.3333 9.66665C21.0681 9.66665 20.8138 9.56129 20.6262 9.37375C20.4387 9.18622 20.3333 8.93186 20.3333 8.66665V8.33331H11.6667V8.66665C11.6667 8.93186 11.5613 9.18622 11.3738 9.37375C11.1862 9.56129 10.9319 9.66665 10.6667 9.66665C10.4014 9.66665 10.1471 9.56129 9.95955 9.37375C9.77201 9.18622 9.66666 8.93186 9.66666 8.66665ZM24.3333 13.6666H7.66666V21.7333C7.66666 22.496 7.66666 23.0093 7.69999 23.4026C7.73066 23.7866 7.78666 23.9693 7.84799 24.0893C8.00799 24.404 8.26266 24.6586 8.57732 24.8186C8.69732 24.88 8.87999 24.936 9.26266 24.9666C9.65732 24.9986 10.1693 25 10.9333 25H21.0667C21.8293 25 22.3427 25 22.736 24.9666C23.12 24.936 23.3027 24.88 23.4227 24.8186C23.7368 24.6588 23.9921 24.4034 24.152 24.0893C24.2133 23.9693 24.2693 23.7866 24.3 23.4026C24.332 23.0093 24.3333 22.496 24.3333 21.7333V13.6666Z" fill="#757575"/>
</svg>
