<svg width="32" height="32" viewBox="0 0 32 32" fill="none" xmlns="http://www.w3.org/2000/svg">
<path opacity="0.3" fill-rule="evenodd" clip-rule="evenodd" d="M7.40399 7.54401C7.73624 6.87973 8.24688 6.32108 8.8787 5.93064C9.51053 5.54019 10.2386 5.33337 10.9813 5.33334H21.0187C21.7614 5.33337 22.4894 5.54019 23.1213 5.93064C23.7531 6.32108 24.2637 6.87973 24.596 7.54401L26.444 11.2387C26.7693 11.1053 27.0893 10.9613 27.404 10.8067C27.7205 10.6486 28.0868 10.6227 28.4224 10.7348C28.7579 10.8468 29.0353 11.0875 29.1933 11.404C29.3514 11.7205 29.3773 12.0868 29.2652 12.4224C29.1532 12.758 28.9125 13.0353 28.596 13.1933C28.276 13.3356 27.9538 13.4742 27.6293 13.6093L28.9107 16.1733C29.1893 16.7293 29.3333 17.3427 29.3333 17.964V21.3333C29.3333 21.8961 29.2145 22.4526 28.9848 22.9663C28.755 23.48 28.4195 23.9395 28 24.3147V26C28 26.5304 27.7893 27.0391 27.4142 27.4142C27.0391 27.7893 26.5304 28 26 28C25.4696 28 24.9608 27.7893 24.5858 27.4142C24.2107 27.0391 24 26.5304 24 26V25.3333H7.99999V26C7.99999 26.5304 7.78928 27.0391 7.4142 27.4142C7.03913 27.7893 6.53042 28 5.99999 28C5.46956 28 4.96085 27.7893 4.58578 27.4142C4.2107 27.0391 3.99999 26.5304 3.99999 26V24.3147C3.18132 23.5813 2.66666 22.5173 2.66666 21.3333V17.9627C2.66666 17.3413 2.81199 16.7293 3.08932 16.1747L4.35999 13.6307C4.03821 13.4956 3.72043 13.3502 3.40666 13.1947C3.09177 13.0346 2.8524 12.7571 2.74017 12.4221C2.62793 12.0872 2.65181 11.7215 2.80666 11.404C2.88487 11.2472 2.99321 11.1074 3.12548 10.9926C3.25775 10.8777 3.41136 10.79 3.57754 10.7345C3.74371 10.6791 3.91919 10.6569 4.09394 10.6693C4.26869 10.6816 4.43929 10.7283 4.59599 10.8067C4.91155 10.9622 5.23154 11.1062 5.55599 11.2387L7.40399 7.54401Z" fill="#757575"/>
<path fill-rule="evenodd" clip-rule="evenodd" d="M9.78933 8.73733C9.89999 8.51589 10.0701 8.32963 10.2806 8.1994C10.4912 8.06918 10.7338 8.00013 10.9813 8H21.0187C21.524 8 21.9853 8.28533 22.2107 8.73733L23.904 12.1213C21.84 12.74 19.0587 13.3333 16 13.3333C12.9413 13.3333 10.16 12.74 8.09733 12.12L9.78933 8.73733ZM22 21.3333C22.5304 21.3333 23.0391 21.1226 23.4142 20.7475C23.7893 20.3725 24 19.8638 24 19.3333C24 18.8029 23.7893 18.2942 23.4142 17.9191C23.0391 17.544 22.5304 17.3333 22 17.3333C21.4696 17.3333 20.9609 17.544 20.5858 17.9191C20.2107 18.2942 20 18.8029 20 19.3333C20 19.8638 20.2107 20.3725 20.5858 20.7475C20.9609 21.1226 21.4696 21.3333 22 21.3333ZM12 19.3333C12 19.8638 11.7893 20.3725 11.4142 20.7475C11.0391 21.1226 10.5304 21.3333 10 21.3333C9.46957 21.3333 8.96086 21.1226 8.58579 20.7475C8.21071 20.3725 8 19.8638 8 19.3333C8 18.8029 8.21071 18.2942 8.58579 17.9191C8.96086 17.544 9.46957 17.3333 10 17.3333C10.5304 17.3333 11.0391 17.544 11.4142 17.9191C11.7893 18.2942 12 18.8029 12 19.3333Z" fill="#757575"/>
</svg>
