<svg width="32" height="32" viewBox="0 0 32 32" fill="none" xmlns="http://www.w3.org/2000/svg">
<path d="M16 8C16.3536 8 16.6928 8.14048 16.9428 8.39052C17.1928 8.64057 17.3333 8.97971 17.3333 9.33333V15.2293L20.1307 16.8453C20.4344 17.0234 20.6554 17.3144 20.7454 17.6548C20.8354 17.9952 20.7871 18.3573 20.611 18.6623C20.435 18.9672 20.1455 19.1901 19.8057 19.2823C19.4659 19.3746 19.1034 19.3287 18.7973 19.1547L15.3333 17.1547C15.1306 17.0376 14.9623 16.8693 14.8453 16.6666C14.7283 16.464 14.6667 16.234 14.6667 16V9.33333C14.6667 8.97971 14.8071 8.64057 15.0572 8.39052C15.3072 8.14048 15.6464 8 16 8Z" fill="#757575"/>
<path opacity="0.5" d="M2.66666 16C2.66666 18.6371 3.44864 21.215 4.91373 23.4076C6.37881 25.6003 8.4612 27.3092 10.8975 28.3184C13.3339 29.3276 16.0148 29.5916 18.6012 29.0772C21.1876 28.5627 23.5634 27.2928 25.4281 25.4281C27.2928 23.5634 28.5627 21.1876 29.0771 18.6012C29.5916 16.0148 29.3276 13.3339 28.3184 10.8976C27.3092 8.46123 25.6002 6.37884 23.4076 4.91376C21.2149 3.44867 18.6371 2.66669 16 2.66669C14.249 2.66669 12.5152 3.01156 10.8975 3.68163C9.27987 4.35169 7.81001 5.33382 6.5719 6.57193C4.07141 9.07242 2.66666 12.4638 2.66666 16ZM14.6667 9.33335C14.6667 8.97973 14.8071 8.64059 15.0572 8.39054C15.3072 8.1405 15.6464 8.00002 16 8.00002C16.3536 8.00002 16.6928 8.1405 16.9428 8.39054C17.1928 8.64059 17.3333 8.97973 17.3333 9.33335V15.2294L20.1307 16.8454C20.4344 17.0234 20.6554 17.3144 20.7454 17.6548C20.8354 17.9952 20.7871 18.3574 20.611 18.6623C20.435 18.9672 20.1455 19.1901 19.8057 19.2824C19.4659 19.3746 19.1034 19.3287 18.7973 19.1547L15.3333 17.1547C15.1306 17.0377 14.9623 16.8694 14.8453 16.6667C14.7283 16.464 14.6667 16.2341 14.6667 16V9.33335Z" fill="#757575"/>
</svg>
