<svg width="32" height="32" viewBox="0 0 32 32" fill="none" xmlns="http://www.w3.org/2000/svg">
<g clip-path="url(#clip0_2481_1338)">
<path opacity="0.2" fill-rule="evenodd" clip-rule="evenodd" d="M21.3152 11.8144C22.5906 12.3791 23.6744 13.3021 24.4351 14.4712C25.1957 15.6403 25.6004 17.0052 25.6 18.4V22.4C25.6 23.2487 25.2629 24.0626 24.6628 24.6627C24.0626 25.2629 23.2487 25.6 22.4 25.6H21.464C21.5536 25.8517 21.5989 26.1184 21.6 26.4V29.6C21.6 30.2365 21.3472 30.847 20.8971 31.2971C20.447 31.7471 19.8365 32 19.2 32H17.6C16.9635 32 16.353 31.7471 15.903 31.2971C15.4529 30.847 15.2 30.2365 15.2 29.6V26.4C15.2011 26.1184 15.2464 25.8517 15.336 25.6H14.4C13.5513 25.6 12.7374 25.2629 12.1373 24.6627C11.5372 24.0626 11.2 23.2487 11.2 22.4V18.4C11.1996 17.0052 11.6043 15.6403 12.365 14.4712C13.1256 13.3021 14.2095 12.3791 15.4848 11.8144C14.6873 11.205 14.1008 10.3608 13.808 9.40072C13.5152 8.44063 13.5307 7.4129 13.8524 6.4621C14.1741 5.51129 14.7858 4.68525 15.6014 4.10018C16.417 3.51511 17.3955 3.20044 18.3992 3.20044C19.403 3.20044 20.3815 3.51511 21.1971 4.10018C22.0127 4.68525 22.6243 5.51129 22.946 6.4621C23.2677 7.4129 23.2832 8.44063 22.9904 9.40072C22.6976 10.3608 22.1128 11.205 21.3152 11.8144Z" fill="#757575"/>
<path d="M20.4 19.2C20.4 19.6244 20.2314 20.0313 19.9313 20.3314C19.6313 20.6314 19.2243 20.8 18.8 20.8C18.3756 20.8 17.9687 20.6314 17.6686 20.3314C17.3685 20.0313 17.2 19.6244 17.2 19.2C17.2 18.7757 17.3685 18.3687 17.6686 18.0686C17.9687 17.7686 18.3756 17.6 18.8 17.6C19.2243 17.6 19.6313 17.7686 19.9313 18.0686C20.2314 18.3687 20.4 18.7757 20.4 19.2ZM14.8 19.2C14.8 19.6244 14.6314 20.0313 14.3313 20.3314C14.0313 20.6314 13.6243 20.8 13.2 20.8C12.7756 20.8 12.3687 20.6314 12.0686 20.3314C11.7685 20.0313 11.6 19.6244 11.6 19.2C11.6 18.7757 11.7685 18.3687 12.0686 18.0686C12.3687 17.7686 12.7756 17.6 13.2 17.6C13.6243 17.6 14.0313 17.7686 14.3313 18.0686C14.6314 18.3687 14.8 18.7757 14.8 19.2Z" fill="#757575"/>
<path fill-rule="evenodd" clip-rule="evenodd" d="M16 11.2C16.6304 11.2 17.2545 11.0759 17.8369 10.8346C18.4193 10.5934 18.9484 10.2398 19.3941 9.79412C19.8398 9.3484 20.1934 8.81925 20.4346 8.23689C20.6759 7.65452 20.8 7.03035 20.8 6.40001C20.8 5.76966 20.6759 5.14549 20.4346 4.56313C20.1934 3.98076 19.8398 3.45161 19.3941 3.00589C18.9484 2.56017 18.4193 2.20661 17.8369 1.96538C17.2545 1.72416 16.6304 1.60001 16 1.60001C14.727 1.60001 13.5061 2.10572 12.6059 3.00589C11.7057 3.90607 11.2 5.12697 11.2 6.40001C11.2 7.67305 11.7057 8.89394 12.6059 9.79412C13.5061 10.6943 14.727 11.2 16 11.2ZM16 3.20001C16.8487 3.20001 17.6626 3.53715 18.2628 4.13726C18.8629 4.73738 19.2 5.55131 19.2 6.40001C19.2 7.2487 18.8629 8.06263 18.2628 8.66275C17.6626 9.26286 16.8487 9.60001 16 9.60001C15.1513 9.60001 14.3374 9.26286 13.7373 8.66275C13.1372 8.06263 12.8 7.2487 12.8 6.40001C12.8 5.55131 13.1372 4.73738 13.7373 4.13726C14.3374 3.53715 15.1513 3.20001 16 3.20001ZM16.8 22.4H15.2C14.5635 22.4 13.953 22.6529 13.503 23.1029C13.0529 23.553 12.8 24.1635 12.8 24.8V28C12.8 28.6365 13.0529 29.247 13.503 29.6971C13.953 30.1471 14.5635 30.4 15.2 30.4H16.8C17.4365 30.4 18.047 30.1471 18.4971 29.6971C18.9472 29.247 19.2 28.6365 19.2 28V24.8C19.2 24.1635 18.9472 23.553 18.4971 23.1029C18.047 22.6529 17.4365 22.4 16.8 22.4ZM14.4 24.8C14.4 24.5878 14.4843 24.3843 14.6343 24.2343C14.7844 24.0843 14.9878 24 15.2 24H16.8C17.0122 24 17.2157 24.0843 17.3657 24.2343C17.5157 24.3843 17.6 24.5878 17.6 24.8V28C17.6 28.2122 17.5157 28.4157 17.3657 28.5657C17.2157 28.7157 17.0122 28.8 16.8 28.8H15.2C14.9878 28.8 14.7844 28.7157 14.6343 28.5657C14.4843 28.4157 14.4 28.2122 14.4 28V24.8Z" fill="#757575"/>
<path d="M24.8 6.00001C24.4817 6.00001 24.1765 5.87358 23.9515 5.64853C23.7264 5.42349 23.6 5.11827 23.6 4.80001C23.6 4.48175 23.7264 4.17652 23.9515 3.95148C24.1765 3.72643 24.4817 3.60001 24.8 3.60001H28C28.3182 3.60001 28.6235 3.72643 28.8485 3.95148C29.0736 4.17652 29.2 4.48175 29.2 4.80001C29.2 5.11827 29.0736 5.42349 28.8485 5.64853C28.6235 5.87358 28.3182 6.00001 28 6.00001H24.8ZM3.99999 6.00001C3.68173 6.00001 3.3765 5.87358 3.15146 5.64853C2.92642 5.42349 2.79999 5.11827 2.79999 4.80001C2.79999 4.48175 2.92642 4.17652 3.15146 3.95148C3.3765 3.72643 3.68173 3.60001 3.99999 3.60001H7.19999C7.51825 3.60001 7.82347 3.72643 8.04852 3.95148C8.27356 4.17652 8.39999 4.48175 8.39999 4.80001C8.39999 5.11827 8.27356 5.42349 8.04852 5.64853C7.82347 5.87358 7.51825 6.00001 7.19999 6.00001H3.99999Z" fill="#757575"/>
<path d="M6.56958 5.38241L7.05278 3.83041L12.9696 5.01761L12.4864 6.56961L6.56958 5.38241ZM19.0304 5.01761L19.5136 6.56961L25.4304 5.38241L24.9472 3.83041L19.0304 5.01761Z" fill="#757575"/>
<path fill-rule="evenodd" clip-rule="evenodd" d="M23.2 16.8C23.2 15.8545 23.0138 14.9182 22.6519 14.0447C22.2901 13.1711 21.7597 12.3774 21.0912 11.7088C20.4226 11.0403 19.6289 10.5099 18.7553 10.1481C17.8818 9.78624 16.9455 9.60001 16 9.60001C15.0545 9.60001 14.1182 9.78624 13.2447 10.1481C12.3711 10.5099 11.5774 11.0403 10.9088 11.7088C10.2402 12.3774 9.70989 13.1711 9.34806 14.0447C8.98622 14.9182 8.79999 15.8545 8.79999 16.8V20.8C8.79999 21.6487 9.13713 22.4626 9.73725 23.0627C10.3374 23.6629 11.1513 24 12 24H20C20.8487 24 21.6626 23.6629 22.2627 23.0627C22.8628 22.4626 23.2 21.6487 23.2 20.8V16.8ZM10.4 16.8C10.4 16.0646 10.5448 15.3364 10.8263 14.657C11.1077 13.9776 11.5202 13.3602 12.0402 12.8402C12.5602 12.3202 13.1775 11.9077 13.857 11.6263C14.5364 11.3449 15.2646 11.2 16 11.2C16.7354 11.2 17.4636 11.3449 18.143 11.6263C18.8224 11.9077 19.4398 12.3202 19.9598 12.8402C20.4798 13.3602 20.8923 13.9776 21.1737 14.657C21.4551 15.3364 21.6 16.0646 21.6 16.8V20.8C21.6 21.2244 21.4314 21.6313 21.1314 21.9314C20.8313 22.2314 20.4243 22.4 20 22.4H12C11.5756 22.4 11.1687 22.2314 10.8686 21.9314C10.5686 21.6313 10.4 21.2244 10.4 20.8V16.8Z" fill="#757575"/>
</g>
<defs>
<clipPath id="clip0_2481_1338">
<rect width="32" height="32" fill="white"/>
</clipPath>
</defs>
</svg>
