<svg width="24" height="24" viewBox="0 0 24 24" fill="none" xmlns="http://www.w3.org/2000/svg">
<path fill-rule="evenodd" clip-rule="evenodd" d="M14.014 17L14.008 19.003C14.007 19.473 14.006 19.708 13.859 19.854C13.712 20 13.477 20 13.005 20H9.99499C6.21499 20 4.32499 20 3.14999 18.828C2.33999 18.022 2.08899 16.877 2.00999 15.011C1.99499 14.641 1.98699 14.455 2.05599 14.332C2.12599 14.209 2.40099 14.055 2.95299 13.746C3.26392 13.5727 3.52292 13.3194 3.70323 13.0125C3.88353 12.7055 3.9786 12.356 3.9786 12C3.9786 11.644 3.88353 11.2945 3.70323 10.9875C3.52292 10.6806 3.26392 10.4273 2.95299 10.254C2.40099 9.946 2.12499 9.791 2.05599 9.668C1.98699 9.545 1.99499 9.36 2.01099 8.989C2.08899 7.123 2.34099 5.979 3.14999 5.172C4.32399 4 6.21399 4 9.99499 4H13.505C13.5706 3.99987 13.6357 4.01267 13.6964 4.03768C13.7571 4.06268 13.8123 4.0994 13.8588 4.14574C13.9054 4.19208 13.9423 4.24712 13.9675 4.30774C13.9928 4.36835 14.0059 4.43334 14.006 4.499L14.014 7C14.014 7.552 14.463 8 15.016 8V10C14.463 10 14.014 10.448 14.014 11V13C14.014 13.552 14.463 14 15.016 14V16C14.463 16 14.014 16.448 14.014 17Z" fill="white"/>
<path opacity="0.5" d="M15.017 16C15.57 16 16.019 16.448 16.019 17V18.976C16.019 19.458 16.019 19.699 16.174 19.846C16.328 19.994 16.564 19.984 17.037 19.964C18.9 19.885 20.044 19.633 20.851 18.828C21.66 18.022 21.911 16.876 21.99 15.01C22.005 14.64 22.013 14.455 21.944 14.332C21.875 14.208 21.599 14.054 21.047 13.746C20.7361 13.5727 20.4771 13.3194 20.2968 13.0125C20.1165 12.7055 20.0214 12.356 20.0214 12C20.0214 11.644 20.1165 11.2945 20.2968 10.9875C20.4771 10.6806 20.7361 10.4273 21.047 10.254C21.599 9.945 21.875 9.791 21.944 9.668C22.014 9.544 22.005 9.359 21.99 8.989C21.911 7.123 21.66 5.978 20.85 5.171C19.973 4.296 18.696 4.075 16.528 4.019C16.4617 4.0174 16.3958 4.02907 16.3341 4.05333C16.2724 4.07759 16.2162 4.11394 16.1688 4.16025C16.1214 4.20656 16.0837 4.2619 16.0579 4.32299C16.0322 4.38408 16.019 4.44971 16.019 4.516V7C16.019 7.552 15.57 8 15.017 8V10C15.1485 9.99973 15.2787 10.0254 15.4003 10.0755C15.5219 10.1257 15.6323 10.1993 15.7254 10.2922C15.8185 10.3851 15.8923 10.4954 15.9427 10.6169C15.9931 10.7383 16.019 10.8685 16.019 11V13C16.019 13.552 15.57 14 15.017 14V16Z" fill="white"/>
</svg>
